<?xml version="1.0" standalone="no"?>
<!DOCTYPE svg PUBLIC "-//W3C//DTD SVG 20010904//EN"
 "http://www.w3.org/TR/2001/REC-SVG-20010904/DTD/svg10.dtd">
<svg version="1.0" xmlns="http://www.w3.org/2000/svg"
 width="78.000000pt" height="81.000000pt" viewBox="0 0 78.000000 81.000000"
 preserveAspectRatio="xMidYMid meet">

<g transform="translate(0.000000,81.000000) scale(0.100000,-0.100000)"
fill="#0165E1" stroke="none">
<path d="M240 744 c-66 -24 -90 -63 -90 -143 0 -50 -1 -51 -29 -51 -32 0 -39
-16 -32 -77 3 -29 7 -33 32 -33 l29 0 0 -155 0 -155 60 0 60 0 0 154 0 155 48
3 47 3 3 53 3 52 -50 0 -51 0 0 34 c0 41 14 54 65 58 39 3 40 4 46 48 4 25 5
46 4 48 -5 6 -131 11 -145 6z"/>
<path d="M531 558 c-91 -26 -115 -77 -109 -230 3 -70 9 -113 21 -134 28 -54
118 -82 221 -70 l55 7 -5 32 c-13 79 -8 74 -71 69 -88 -6 -98 6 -98 113 0 107
10 119 97 113 l58 -4 6 35 c3 20 8 43 10 52 3 12 -5 18 -33 23 -52 8 -111 6
-152 -6z"/>
</g>
</svg>
