<?xml version="1.0" standalone="no"?>
<!DOCTYPE svg PUBLIC "-//W3C//DTD SVG 20010904//EN"
 "http://www.w3.org/TR/2001/REC-SVG-20010904/DTD/svg10.dtd">
<svg version="1.0" xmlns="http://www.w3.org/2000/svg"
 width="1067.000000pt" height="227.000000pt" viewBox="0 0 1067.000000 227.000000"
 preserveAspectRatio="xMidYMid meet">

<g transform="translate(0.000000,227.000000) scale(0.100000,-0.100000)"
fill="#0165E1" stroke="none">
<path d="M676 1809 c-101 -24 -145 -96 -146 -236 l0 -93 -55 0 -55 0 0 -90 0
-90 55 0 55 0 0 -270 0 -270 105 0 105 0 0 270 0 270 80 0 80 0 0 38 c0 20 3
61 6 90 l7 52 -87 0 -86 0 0 59 c0 82 13 94 101 89 l68 -4 12 83 c7 46 10 85
7 88 -9 10 -112 25 -162 24 -28 -1 -69 -5 -90 -10z"/>
<path d="M3260 1805 c-47 -7 -91 -14 -97 -14 -10 -1 -13 -111 -13 -515 l0
-514 78 -9 c141 -15 331 -10 390 11 64 22 115 64 145 120 20 37 22 59 25 233
3 153 1 203 -12 246 -28 96 -102 147 -213 147 -38 0 -152 -22 -185 -35 -17 -7
-18 5 -18 169 0 97 -3 175 -7 175 -5 -1 -46 -7 -93 -14z m296 -499 c17 -13 19
-29 22 -151 5 -199 -12 -225 -148 -225 l-70 0 2 177 3 177 45 18 c55 21 120
23 146 4z"/>
<path d="M5695 1815 c-5 -2 -49 -9 -97 -15 l-88 -12 0 -514 0 -514 105 0 105
0 0 530 c0 292 -3 530 -7 529 -5 0 -12 -2 -18 -4z"/>
<path d="M7690 1805 c-47 -7 -91 -14 -97 -14 -10 -1 -13 -111 -13 -516 l0
-515 105 0 105 0 0 530 c0 292 -3 529 -7 529 -5 -1 -46 -7 -93 -14z"/>
<path d="M1177 1499 c-89 -13 -137 -28 -132 -42 2 -6 9 -44 15 -83 l11 -70 67
14 c88 18 215 13 238 -10 9 -9 19 -39 22 -67 l5 -51 -117 0 c-65 0 -137 -5
-162 -11 -88 -22 -134 -93 -134 -205 0 -198 138 -279 345 -204 96 35 95 35 95
11 0 -20 5 -21 91 -21 l90 0 -3 298 c-3 296 -3 297 -28 342 -14 24 -40 54 -57
66 -58 39 -207 53 -346 33z m223 -519 c0 -57 -2 -61 -27 -72 -50 -20 -137 -22
-156 -4 -26 26 -32 82 -13 111 16 24 22 25 106 25 l90 0 0 -60z"/>
<path d="M1951 1495 c-86 -19 -134 -54 -168 -124 -28 -55 -28 -59 -28 -246 0
-187 0 -191 28 -246 34 -71 81 -105 173 -124 84 -18 143 -19 235 -4 56 10 69
15 65 28 -2 9 -7 39 -11 66 -13 99 -2 92 -125 91 -101 -1 -111 1 -132 22 -22
21 -23 30 -23 167 0 136 1 146 22 167 27 26 110 35 190 20 l52 -9 11 71 c6 39
13 80 15 92 4 19 -2 22 -65 33 -88 14 -159 13 -239 -4z"/>
<path d="M2581 1500 c-111 -24 -177 -83 -207 -188 -13 -42 -15 -89 -12 -211 4
-146 6 -159 31 -207 56 -109 141 -149 312 -149 103 1 258 26 269 43 4 8 -21
142 -28 149 -2 2 -43 -3 -92 -12 -50 -10 -118 -15 -156 -13 -82 4 -113 29
-124 96 l-7 42 213 0 213 0 -6 123 c-7 142 -16 179 -58 236 -43 61 -117 92
-222 97 -45 2 -102 -1 -126 -6z m161 -161 c24 -13 48 -67 48 -109 l0 -30 -111
0 -112 0 5 52 c7 68 39 98 104 98 25 0 54 -5 66 -11z"/>
<path d="M4140 1500 c-104 -22 -187 -93 -211 -182 -6 -25 -9 -109 -7 -217 3
-172 4 -177 31 -223 57 -97 132 -131 292 -132 106 -1 113 0 179 33 53 26 74
43 97 79 42 67 49 101 49 257 0 174 -5 202 -44 268 -25 42 -43 58 -96 85 -56
28 -78 34 -155 37 -50 2 -110 0 -135 -5z m193 -208 c21 -21 22 -31 22 -167 0
-136 -1 -146 -22 -167 -17 -16 -38 -23 -82 -26 -56 -4 -62 -2 -91 26 l-30 30
0 137 0 137 30 30 c29 28 35 30 91 26 44 -3 65 -10 82 -26z"/>
<path d="M4920 1500 c-104 -22 -187 -93 -211 -182 -6 -25 -9 -109 -7 -217 3
-172 4 -177 31 -223 57 -97 132 -131 292 -132 106 -1 113 0 179 33 53 26 74
43 97 79 42 67 49 101 49 257 0 174 -5 202 -44 268 -25 42 -43 58 -96 85 -56
28 -78 34 -155 37 -50 2 -110 0 -135 -5z m193 -208 c21 -21 22 -31 22 -167 0
-136 -1 -146 -22 -167 -17 -16 -38 -23 -82 -26 -56 -4 -62 -2 -91 26 l-30 30
0 137 0 137 30 30 c29 28 35 30 91 26 44 -3 65 -10 82 -26z"/>
<path d="M7145 1500 c-111 -22 -181 -79 -206 -168 -9 -31 -14 -103 -14 -207 0
-184 11 -235 61 -294 62 -72 210 -106 364 -82 41 7 76 13 78 15 2 2 -2 42 -9
90 l-12 85 -93 -6 c-105 -7 -145 4 -163 43 -14 31 -15 278 -1 303 18 34 64 44
164 37 l93 -6 12 86 c7 47 11 88 9 90 -2 1 -33 8 -68 13 -74 12 -157 12 -215
1z"/>
<path d="M8173 1500 c-95 -20 -181 -93 -206 -174 -16 -55 -16 -347 1 -402 17
-58 81 -127 144 -155 46 -20 69 -23 168 -23 139 0 197 20 260 92 56 64 65 101
65 287 0 99 -5 176 -13 201 -17 59 -81 127 -143 153 -58 26 -204 37 -276 21z
m177 -195 c38 -19 50 -64 50 -180 0 -155 -25 -195 -120 -195 -95 0 -120 40
-120 195 0 114 13 160 48 180 35 19 105 19 142 0z"/>
<path d="M9135 1495 c-33 -7 -85 -22 -115 -34 -70 -27 -76 -26 -84 4 -6 24 -9
25 -86 25 l-80 0 0 -365 0 -365 105 0 105 0 0 244 0 244 53 22 c28 13 71 25
93 28 72 8 74 -1 74 -290 l0 -248 106 0 106 0 -4 308 c-3 297 -4 308 -26 354
-40 81 -114 102 -247 73z"/>
<path d="M9781 1500 c-111 -24 -177 -83 -207 -188 -13 -42 -15 -89 -12 -211 4
-146 6 -159 31 -207 56 -109 141 -149 312 -149 103 1 258 26 269 43 4 8 -21
142 -28 149 -2 2 -43 -3 -92 -12 -50 -10 -118 -15 -156 -13 -82 4 -113 29
-124 96 l-7 42 213 0 213 0 -6 123 c-7 142 -16 179 -58 236 -43 61 -117 92
-222 97 -45 2 -102 -1 -126 -6z m161 -161 c24 -13 48 -67 48 -109 l0 -30 -111
0 -112 0 5 52 c7 68 39 98 104 98 25 0 54 -5 66 -11z"/>
<path d="M5850 1308 l-93 -183 98 -182 97 -183 115 0 115 0 -20 33 c-11 17
-56 100 -102 184 l-82 152 92 173 c51 95 94 176 97 181 2 4 -47 7 -110 7
l-115 0 -92 -182z"/>
<path d="M6200 610 l0 -40 335 0 335 0 0 40 0 40 -335 0 -335 0 0 -40z"/>
</g>
</svg>
